<!DOCTYPE svg PUBLIC "-//W3C//DTD SVG 1.1//EN" "http://www.w3.org/Graphics/SVG/1.1/DTD/svg11.dtd">
<!-- Uploaded to: SVG Repo, www.svgrepo.com, Transformed by: SVG Repo Mixer Tools -->
<svg fill="#ffffff" width="800px" height="800px" viewBox="-6 0 32 32" version="1.1" xmlns="http://www.w3.org/2000/svg">
<g id="SVGRepo_bgCarrier" stroke-width="0"/>
<g id="SVGRepo_tracerCarrier" stroke-linecap="round" stroke-linejoin="round"/>
<g id="SVGRepo_iconCarrier"> <title>suitcase</title> <path d="M16.84 10.72h-2.2v-2c0-1.48-1.2-2.72-2.72-2.72h-3.44c-1.48 0-2.72 1.2-2.72 2.72v2h-2.16c-2 0-3.6 1.6-3.6 3.6v8.080c0 2 1.6 3.6 3.6 3.6h13.24c2 0 3.6-1.6 3.6-3.6v-8.080c0-2-1.6-3.6-3.6-3.6zM7.44 8.72c0-0.6 0.48-1.040 1.040-1.040h3.44c0.6 0 1.040 0.48 1.040 1.040v2h-5.52v-2zM18.8 22.4c0 1.080-0.88 1.92-1.92 1.92h-13.28c-1.080 0-1.92-0.88-1.92-1.92v-8.080c0-1.080 0.88-1.92 1.92-1.92h13.24c1.080 0 1.92 0.88 1.92 1.92v8.080z"/> </g>
</svg>